# xmcd CD database file
#
# Track frame offsets:
#        150
#        49675
#        98515
#        133685
#        170297
#        182552
#        205710
#        224432
#
# Disc length: 3105 seconds
#
# Revision: 0
# Processed by: cddbd v1.5.2PL0 Copyright (c) Steve Scherf et al.
# Submitted via: CUERipper 2.1.4
#
DISCID=670c1f08
DTITLE=Various Artist - At The Cobra Studio, 1956-1958
DYEAR=1992
DGENRE=Blues
TTITLE0=Buddy Guy - This Is The End (Session)
TTITLE1=Buddy Guy - You Sure Can't Do (Session)
TTITLE2=Otis Rush - Violent Love (Session)
TTITLE3=Otis Rush - Keep On Loving Me Baby (Session)
TTITLE4=Magic Sam - 21 Days In Jail (Session)
TTITLE5=Magic Sam - Love Me With A Feeling (Session)
TTITLE6=Magic Sam - Easy Baby (Session)
TTITLE7=Magic Sam - Magic Rocker
EXTD=
EXTT0=
EXTT1=
EXTT2=
EXTT3=
EXTT4=
EXTT5=
EXTT6=
EXTT7=
PLAYORDER=
